<?xml version="1.0" encoding="utf-8"?>
<!-- Generator: Adobe Illustrator 21.0.2, SVG Export Plug-In . SVG Version: 6.00 Build 0)  -->
<svg version="1.1" id="Layer_1" xmlns="http://www.w3.org/2000/svg" xmlns:xlink="http://www.w3.org/1999/xlink" x="0px" y="0px"
	 viewBox="0 0 20 20" style="enable-background:new 0 0 20 20;" xml:space="preserve">
<style type="text/css">
	.st0{fill:#FFFFFF;}
</style>
<g>
	<path class="st0" d="M16.1,7.6l-5.9,5.9l-1.1,1.1c-0.1,0.1-0.4,0.2-0.6,0.2c-0.2,0-0.4-0.1-0.6-0.2l-1.1-1.1l-3-3
		c-0.1-0.1-0.2-0.4-0.2-0.6s0.1-0.4,0.2-0.6L5,8.3c0.1-0.1,0.4-0.2,0.6-0.2S6,8.2,6.1,8.3l2.4,2.4l5.4-5.4c0.1-0.1,0.4-0.2,0.6-0.2
		c0.2,0,0.4,0.1,0.6,0.2l1.1,1.1c0.1,0.1,0.2,0.4,0.2,0.6S16.3,7.4,16.1,7.6z"/>
</g>
</svg>
