<?xml version="1.0" encoding="utf-8"?>
<!-- Generator: Adobe Illustrator 21.0.2, SVG Export Plug-In . SVG Version: 6.00 Build 0)  -->
<svg version="1.1" id="Layer_1" xmlns="http://www.w3.org/2000/svg" xmlns:xlink="http://www.w3.org/1999/xlink" x="0px" y="0px"
	 viewBox="0 0 30 26" style="enable-background:new 0 0 30 26;" xml:space="preserve">
<style type="text/css">
	.st0{fill:#FFFFFF;}
</style>
<g>
	<path class="st0" d="M27,19.4C25,23.6,19.3,24,15.3,24C11.1,24,5.1,23.6,3,19.4c-0.8-1.6-1-3.4-1-5.2C2,12,2.6,9.8,4.1,8.1
		C3.8,7.2,3.7,6.3,3.7,5.4C3.7,4.2,4,3.1,4.5,2c2.5,0,4,1.1,5.9,2.5C12,4.2,13.6,4,15.3,4c1.5,0,3,0.2,4.4,0.5C21.5,3,23.1,2,25.5,2
		c0.5,1.1,0.8,2.2,0.8,3.4c0,0.9-0.1,1.8-0.4,2.6C27.4,9.8,28,12,28,14.3C28,16,27.8,17.8,27,19.4z M20.5,12.5c-1,0-2,0.2-3,0.3
		C16.6,13,15.8,13,15,13s-1.6,0-2.5-0.2c-1-0.1-2-0.3-3-0.3c-2.5,0-4,2.1-4,4.5c0,4.8,4.4,5.5,8.2,5.5h2.6c3.8,0,8.2-0.7,8.2-5.5
		C24.5,14.6,23,12.5,20.5,12.5z M10,20c-1.4,0-2-1.9-2-3s0.6-3,2-3s2,1.9,2,3C12,18.1,11.4,20,10,20z M20,20c-1.4,0-2-1.9-2-3
		s0.6-3,2-3s2,1.9,2,3C22,18.1,21.4,20,20,20z"/>
</g>
</svg>
