<?xml version="1.0" encoding="utf-8"?>
<!-- Generator: Adobe Illustrator 21.0.2, SVG Export Plug-In . SVG Version: 6.00 Build 0)  -->
<svg version="1.1" id="Layer_1" xmlns="http://www.w3.org/2000/svg" xmlns:xlink="http://www.w3.org/1999/xlink" x="0px" y="0px"
	 viewBox="0 0 30 26" style="enable-background:new 0 0 30 26;" xml:space="preserve">
<style type="text/css">
	.st0{fill:#FFFFFF;}
</style>
<g>
	<path class="st0" d="M5.9,6.9L5.9,6.9C4.1,6.9,3,5.7,3,4.2c0-1.5,1.2-2.7,2.9-2.7c1.8,0,2.9,1.2,2.9,2.7C8.8,5.7,7.7,6.9,5.9,6.9z
		 M8.5,24.5H3.3V9h5.2V24.5z M27,24.5h-5.1v-8.3c0-2.1-0.8-3.5-2.6-3.5c-1.4,0-2.3,1-2.6,1.9c-0.1,0.3-0.2,0.8-0.2,1.3v8.6h-5.1
		c0.1-14,0-15.5,0-15.5h5.1v2.3h0c0.7-1.1,1.9-2.6,4.7-2.6c3.4,0,5.9,2.2,5.9,7L27,24.5L27,24.5z"/>
</g>
</svg>
