<?xml version="1.0" encoding="utf-8"?>
<!-- Generator: Adobe Illustrator 21.0.2, SVG Export Plug-In . SVG Version: 6.00 Build 0)  -->
<svg version="1.1" id="Layer_1" xmlns="http://www.w3.org/2000/svg" xmlns:xlink="http://www.w3.org/1999/xlink" x="0px" y="0px"
	 viewBox="0 0 45 45" style="enable-background:new 0 0 45 45;" xml:space="preserve">
<style type="text/css">
	.st0{fill:#C4CBCD;}
</style>
<g>
	<path class="st0" d="M29.8,26.6c-0.3,0-1.1-0.9-1.3-1.2l-1,1l2.2,2.2c0.2,0.2,0.3,0.4,0.3,0.7c0,0.6-0.6,1.2-1.2,1.2
		c-0.3,0-0.5-0.1-0.7-0.3l-6.7-6.7c-1.1,0.8-2.3,1.3-3.7,1.3c-2.2,0-3.7-1.5-3.7-3.7c0-3.3,3.3-6.6,6.6-6.6c2.2,0,3.7,1.5,3.7,3.7
		c0,1.3-0.5,2.6-1.3,3.7l3.6,3.6l1-1c-0.2-0.2-1.2-1-1.2-1.3c0-0.2,0.9-1.2,1.2-1.2c0.1,0,0.2,0,0.2,0.1c0.4,0.4,3.2,3,3.2,3.3
		C30.9,25.7,30,26.6,29.8,26.6z M20.5,16.4c-1.1,0-1.9,0.9-1.9,1.9c0,0.3,0.1,0.6,0.2,0.8c-0.3-0.1-0.5-0.2-0.8-0.2
		c-1.1,0-1.9,0.9-1.9,1.9s0.9,1.9,1.9,1.9s1.9-0.9,1.9-1.9c0-0.3-0.1-0.6-0.2-0.8c0.3,0.1,0.5,0.2,0.8,0.2c1.1,0,1.9-0.9,1.9-1.9
		S21.5,16.4,20.5,16.4z"/>
</g>
</svg>
