<svg id="Layer_1" data-name="Layer 1" xmlns="http://www.w3.org/2000/svg" viewBox="0 0 91.34 75.15">
  <defs>
    <style>
      .cls-1 {
        fill: none;
        fill-rule: evenodd;
      }
    </style>
  </defs>
  <title>quote</title>
  <path class="cls-1" d="M36.38,0c1.76,4.44,1,6.5-2.05,8.63a109.06,109.06,0,0,0-15,12.26c-5.18,5.24-7,12-5.42,19.34,1,4.66,3.39,5.71,8.08,4.85,3.81-.7,7.91-1.57,11.59-.87,5.65,1.08,9.22,5.36,10.26,11,1.11,6-.18,11.54-5.46,15.57C25.06,81,4.88,72.45,1,54.52S4.28,22.16,18,11C23.35,6.58,30,3.73,36.38,0Z" transform="translate(0)"/>
  <path class="cls-1" d="M83.84,1.14C85.25,4.76,84,6.7,81.1,8.77A107.91,107.91,0,0,0,66.17,21.09C61,26.37,59.31,33.15,61,40.49c.94,4.18,3.55,5.65,7.8,4.62,3.19-.78,6.57-1.91,9.69-1.53,6.3.77,10.53,4.75,12.29,10.91a15.23,15.23,0,0,1-5.56,16.45C71.93,80.86,52.33,72.35,48,54.78c-2.33-9.47-.76-18.5,3.4-27.13C57.55,14.89,70.32,4.47,83.84,1.14Z" transform="translate(0)"/>
</svg>
