<?xml version="1.0" encoding="utf-8"?>
<!-- Generator: Adobe Illustrator 21.0.2, SVG Export Plug-In . SVG Version: 6.00 Build 0)  -->
<svg version="1.1" id="Layer_1" xmlns="http://www.w3.org/2000/svg" xmlns:xlink="http://www.w3.org/1999/xlink" x="0px" y="0px"
	 viewBox="0 0 566.9 566.9" style="enable-background:new 0 0 566.9 566.9;" xml:space="preserve">
<style type="text/css">
	.st0{fill:#333333;}
</style>
<g>
	<path class="st0" d="M264.2,259.9c-42.6-10.6-19.3-47.7,15.2-47.2c33.5,0.5,50.5,36.6,65.7,34.8c15.2-1.9,28.2-25.1,4.3-45.9
		c-20.7-18-46.8-27.9-87-24.2c-31.5,2.9-61.5,23.6-65.1,63.9c-3.7,40.4,43.2,60.8,80.3,66.4c26,3.9,61.5,16.7,40.2,41.6
		c-19.6,22.8-56.6,8.7-66.3,2.5c-9.7-6.2-20.7-28.6-39-27.3c-18.3,1.2-27.3,25.7-4.9,47.2c20.1,19.2,42,29.8,88.8,27.3
		c46.9-2.5,88.9-44.7,72.4-84.4C352.5,274.8,306.9,270.5,264.2,259.9z"/>
	<path class="st0" d="M283.5,0C126.9,0,0,126.9,0,283.5C0,440,126.9,566.9,283.5,566.9S566.9,440,566.9,283.5
		C566.9,126.9,440,0,283.5,0z M356,443.8c-17,0-33-5-46.5-13.4c-8.7,1.6-17.6,2.5-26.8,2.5c-81.4,0-147.3-66.5-147.3-148.6
		c0-7.9,0.6-15.8,1.8-23.4c-9-14-14.2-30.6-14.2-48.5c0-49.2,39.3-89.2,87.9-89.2c17.7,0,34.2,5.3,48,14.5c7.7-1.3,15.6-2,23.7-2
		c81.3,0,147.3,66.6,147.3,148.6c0,6.8-0.5,13.5-1.4,20.2c9.6,14.3,15.3,31.6,15.3,50.2C443.9,403.9,404.5,443.8,356,443.8z"/>
</g>
</svg>
