<?xml version="1.0" encoding="utf-8"?>
<!-- Generator: Adobe Illustrator 21.0.2, SVG Export Plug-In . SVG Version: 6.00 Build 0)  -->
<svg version="1.1" id="background" xmlns="http://www.w3.org/2000/svg" xmlns:xlink="http://www.w3.org/1999/xlink" x="0px" y="0px"
	 viewBox="0 0 186.9 111" style="enable-background:new 0 0 186.9 111;" xml:space="preserve">
<style type="text/css">
	<!--.st0{fill:none;}-->
</style>
<circle fill="#fff" class="st0" cx="70.7" cy="105.8" r="5.2"/>
<circle fill="#fff" class="st0" cx="5.2" cy="78.3" r="5.2"/>
<circle fill="#fff" class="st0" cx="121.8" cy="63.5" r="2.8"/>
<circle fill="#fff" class="st0" cx="48.9" cy="49.7" r="2.8"/>
<circle class="st0" cx="33.2" cy="17.8" r="2.8"/>
<circle class="st0" cx="87.6" cy="7.9" r="2.8"/>
<polygon class="st0" points="5.2,78.3 70.7,105.8 121.8,63.5 "/>
<polygon class="st0" points="33.2,17.8 5.2,78.3 70.7,105.8 88,7.8 "/>
<line class="st0" x1="48.9" y1="49.7" x2="121.8" y2="63.5"/>
<circle class="st0" cx="181.7" cy="93.2" r="5.2"/>
<circle class="st0" cx="136.6" cy="5.2" r="5.2"/>
<circle class="st0" cx="176.3" cy="27.1" r="2.8"/>
<circle class="st0" cx="123.2" cy="79" r="2.8"/>
<circle class="st0" cx="88.1" cy="73.6" r="2.8"/>
<circle class="st0" cx="111.1" cy="23.4" r="2.8"/>
<polygon class="st0" points="123.2,79 181.7,93.2 176.3,27.1 "/>
<polygon class="st0" points="88.1,73.6 136.6,5.2 181.7,93.2 111.3,22.9 "/>
<line class="st0" x1="123.2" y1="79" x2="176.3" y2="27.1"/>
</svg>
