<?xml version="1.0" encoding="utf-8"?>
<!-- Generator: Adobe Illustrator 21.0.2, SVG Export Plug-In . SVG Version: 6.00 Build 0)  -->
<svg version="1.1" id="Layer_1" xmlns="http://www.w3.org/2000/svg" xmlns:xlink="http://www.w3.org/1999/xlink" x="0px" y="0px"
	 viewBox="2.3 2.4 34.6 34.5" style="enable-background:new 2.3 2.4 34.6 34.5;" xml:space="preserve">
<style type="text/css">
	.st0{fill:#00BFA5;}
</style>
<g id="Picture">
	<circle class="st0" cx="9.1" cy="9.8" r="3"/>
	<path class="st0" d="M20,11.3c-0.5-1-1.5-1-2-0.1l-2.9,4.6c-0.6,0.9-1.7,1.2-2.6,0.7c-0.8-0.6-2.1-0.4-2.8,0.5l-2.9,3.4
		c-0.7,0.8-0.4,1.5,0.7,1.5h16.4c1.1,0,1.6-0.8,1-1.7L20,11.3z"/>
</g>
<path class="st0" d="M29.8,23.1V3.5c0-0.6-0.5-1-1-1H3.3c-0.6,0-1,0.5-1,1v25.1c0,0.6,0.5,1,1,1h19.8C23.2,26,26.1,23.1,29.8,23.1z
	 M4.9,5.2h21.9V23H4.9V5.2z"/>
<g>
	<path class="st0" d="M29.8,23.4c-3.5,0-6.4,2.9-6.4,6.4c0,3.5,2.9,6.4,6.4,6.4c3.5,0,6.4-2.9,6.4-6.4
		C36.2,26.2,33.3,23.4,29.8,23.4z M33.8,30.4h-3.5v3.5h-1.2v-3.5h-3.5v-1.2h3.5v-3.5h1.2v3.5h3.5V30.4z"/>
</g>
</svg>
